:SAMPLES-PER-SECOND 30
:FULLY-SPECIFIED
:DEGREES
164
root  21.847 38.7429 -31.5939 -92.2658 87.8492 -85.4667
RightUpLeg  -10.4028 -19.7119 5.3684
RightLeg  29.5771 -1.24564 -1.01582
RightFoot  -10.7649 -0.0345004 -7.76102
RightToes  0.000482159 0.542163 -0.142577
Spine  21.9462 -2.15144 10.474
Spine1  12.6246 -0.572526 1.1739
HEad  6.335 -3.51736 -2.82207
LeftShoulder1  8.44083 -13.3424 -43.5987
LeftArm  -11.1596 4.13472 -20.5069
LeftForeArm  17.6503 -70.2394 -32.1031
LeftHand  -0.25398 0.0180481 5.50724
RightShoulder  5.46866 9.9937 34.5609
RightArm  -10.9773 -8.53703 25.1924
RightForeArm  14.1243 76.7391 65.3847
RightHand  0.620168 -14.9664 -8.48329
LeftUpLeg  -26.2717 10.83 4.22483
LeftLeg  51.7457 3.7969 5.61955
LeftFoot  -0.861646 0.131316 -1.39667
LeftToes  1.06247e-005 4.65855e-005 -8.18501e-006
165
root  23.1708 38.8291 -31.6171 -84.0153 87.8404 -77.5748
RightUpLeg  -8.35054 -18.53 4.90198
RightLeg  29.4462 -2.12072 -1.5446
RightFoot  -12.7137 -0.176409 -7.68804
RightToes  0.000482159 0.542163 -0.142577
Spine  22.4455 -1.84006 10.4317
Spine1  12.2863 -0.285764 0.97878
HEad  6.05699 -3.65375 -3.07633
LeftShoulder1  8.46553 -13.4399 -43.468
LeftArm  -10.6815 3.19421 -20.2832
LeftForeArm  16.4892 -69.6625 -31.0302
LeftHand  -0.25398 0.0180481 5.50724
RightShoulder  5.40746 9.95336 34.232
RightArm  -10.4242 -7.46228 25.2434
RightForeArm  8.52986 76.0944 60.0194
RightHand  0.58452 -14.4938 -8.4457
LeftUpLeg  -26.2959 11.7146 3.24097
LeftLeg  37.8656 4.93073 4.58307
LeftFoot  -1.06185 0.27395 -2.95935
LeftToes  1.06247e-005 4.65855e-005 -8.18501e-006
166
root  24.4881 38.8377 -31.6798 -70.6784 87.6089 -64.7798
RightUpLeg  -6.5619 -17.0997 4.59088
RightLeg  29.3775 -2.73978 -1.91493
RightFoot  -14.7018 -0.297617 -6.76603
RightToes  0.000482159 0.542163 -0.142577
Spine  22.7423 -1.62478 10.6304
Spine1  12.3369 0.188935 0.0967666
HEad  5.57925 -3.83864 -3.06029
LeftShoulder1  8.46215 -13.5169 -43.2414
LeftArm  -10.208 2.17865 -20.1591
LeftForeArm  15.3653 -69.0219 -29.9046
LeftHand  -0.25398 0.0180481 5.50724
RightShoulder  5.40212 10.0235 33.9868
RightArm  -9.92089 -6.36915 25.2119
RightForeArm  3.41998 75.3336 55.1078
RightHand  0.556499 -14.1153 -8.42021
LeftUpLeg  -25.3853 14.187 1.9165
LeftLeg  22.4451 5.17777 2.44798
LeftFoot  0.442288 0.347664 -3.40044
LeftToes  1.06247e-005 4.65855e-005 -8.18501e-006
167
root  25.8229 38.7222 -31.7769 -58.5247 86.8472 -53.1187
RightUpLeg  -5.10349 -15.6907 4.62224
RightLeg  30.0446 -3.20128 -2.24843
RightFoot  -16.423 -0.387132 -6.16265
RightToes  0.000482159 0.542163 -0.142577
Spine  23.0469 -1.59228 11.0967
Spine1  12.8166 0.718972 -0.977112
HEad  5.22081 -3.77085 -2.85436
LeftShoulder1  8.43772 -13.545 -43.0336
LeftArm  -9.80621 1.10002 -19.9984
LeftForeArm  13.8112 -68.085 -28.4034
LeftHand  -0.25398 0.0180481 5.50724
RightShoulder  5.50712 10.2876 33.982
RightArm  -9.28039 -4.91276 24.9946
RightForeArm  -2.31337 74.3078 49.9845
RightHand  0.550633 -13.5169 -8.90244
LeftUpLeg  -23.3573 13.9476 2.7613
LeftLeg  8.33817 9.7367 -1.208
LeftFoot  1.74204 0.425011 -3.79389
LeftToes  1.06247e-005 4.65855e-005 -8.18501e-006
168
root  27.1952 38.4623 -31.896 -53.9703 85.6726 -48.7875
RightUpLeg  -3.69342 -14.2543 5.01849
RightLeg  31.6129 -4.01625 -2.91823
RightFoot  -18.6282 -0.521658 -6.22176
RightToes  0.000482159 0.542163 -0.142577
Spine  23.3674 -1.60972 11.4917
Spine1  13.4954 1.03051 -1.46003
HEad  5.11445 -3.43407 -2.47502
LeftShoulder1  8.41854 -13.5932 -42.8009
LeftArm  -9.61236 -0.124035 -19.8415
LeftForeArm  11.5315 -66.5878 -26.2887
LeftHand  -0.25398 0.0180481 5.50724
RightShoulder  5.66154 10.5881 34.2236
RightArm  -8.42116 -2.75221 24.7498
RightForeArm  -8.98701 72.7882 44.1815
RightHand  0.539665 -12.7168 -9.60402
LeftUpLeg  -20.5538 7.15917 7.19053
LeftLeg  -1.21033 21.4595 -6.41749
LeftFoot  2.77555 0.556503 -4.5906
LeftToes  1.06247e-005 4.65855e-005 -8.18501e-006
169
root  28.5568 38.1294 -32.017 -52.6276 84.603 -47.5876
RightUpLeg  -2.56517 -12.7809 5.32163
RightLeg  34.0008 -4.62824 -3.61146
RightFoot  -21.2203 -0.508437 -4.34548
RightToes  0.000482159 0.542163 -0.142577
Spine  24.0577 -1.59563 11.0616
Spine1  14.1512 1.0604 -1.32445
HEad  4.98037 -2.92463 -2.02625
LeftShoulder1  8.39865 -13.6793 -42.4649
LeftArm  -9.69698 -1.43636 -19.782
LeftForeArm  8.77859 -64.6 -23.902
LeftHand  -0.25398 0.0180481 5.50724
RightShoulder  5.76225 10.7536 34.4608
RightArm  -7.38963 0.06636 24.7734
RightForeArm  -15.3593 70.7589 38.3493
RightHand  0.509469 -12.1257 -9.86978
LeftUpLeg  -20.1737 8.23227 7.24608
LeftLeg  -2.18192 23.0163 -7.26358
LeftFoot  5.4421 0.479475 -3.55199
LeftToes  1.06247e-005 4.65855e-005 -8.18501e-006
170
root  29.8337 37.7845 -32.1588 -49.3686 83.755 -44.6639
RightUpLeg  -3.3704 -11.691 5.00864
RightLeg  39.1215 -3.91895 -3.66813
RightFoot  -21.5604 -0.115721 0.56469
RightToes  0.000482159 0.542163 -0.142577
Spine  25.5981 -1.44935 9.72317
Spine1  14.2938 0.946999 -0.704671
HEad  4.32047 -2.22885 -1.80211
LeftShoulder1  8.4016 -13.7838 -42.2062
LeftArm  -10.012 -2.81507 -19.6916
LeftForeArm  5.99658 -62.4265 -21.7249
LeftHand  -0.25398 0.0180481 5.50724
RightShoulder  5.77442 10.8256 34.3435
RightArm  -6.30587 3.24597 25.1889
RightForeArm  -20.3959 68.4333 33.3242
RightHand  0.473161 -11.8043 -9.69367
LeftUpLeg  -21.7326 10.0419 6.45854
LeftLeg  2.48021 21.6872 -5.5635
LeftFoot  10.7761 -0.418435 1.6627
LeftToes  1.06247e-005 4.65855e-005 -8.18501e-006
171
root  30.9499 37.489 -32.3368 -40.5883 83.243 -36.5392
RightUpLeg  -7.87498 -11.2658 3.68095
RightLeg  48.7185 -2.66073 -3.6202
RightFoot  -15.9568 0.0786664 4.62492
RightToes  0.000482159 0.542163 -0.142577
Spine  28.1772 -1.03814 7.67399
Spine1  13.7429 0.848583 0.131045
HEad  2.82736 -1.54002 -1.94349
LeftShoulder1  8.50328 -13.9817 -42.2348
LeftArm  -10.4443 -4.76423 -19.2746
LeftForeArm  3.28911 -60.0366 -19.7121
LeftHand  -0.25398 0.0180481 5.50724
RightShoulder  5.7451 10.9569 33.7806
RightArm  -5.43844 6.70212 25.8586
RightForeArm  -24.4297 65.8414 29.0589
RightHand  0.415464 -11.1878 -9.52291
LeftUpLeg  -25.0748 16.2939 2.67163
LeftLeg  8.58525 14.0756 -2.83735
LeftFoot  15.4782 -2.09743 8.4601
LeftToes  1.06247e-005 4.65855e-005 -8.18501e-006
172
root  31.8211 37.3064 -32.5294 -26.0876 83.2103 -23.1444
RightUpLeg  -15.7947 -11.2235 1.61037
RightLeg  60.0461 -2.05797 -4.3976
RightFoot  -5.00675 -0.226551 4.11096
RightToes  0.000482159 0.542163 -0.142577
Spine  31.6218 -0.549072 5.28379
Spine1  13.0464 0.900923 0.220764
HEad  0.533561 -1.42853 -2.17066
LeftShoulder1  8.73287 -14.4072 -42.3522
LeftArm  -10.8386 -8.11708 -18.4182
LeftForeArm  0.49896 -56.9558 -17.5222
LeftHand  -0.25398 0.0180481 5.50724
RightShoulder  5.71668 11.1889 32.9626
RightArm  -5.14883 10.6084 26.5499
RightForeArm  -28.0651 62.6694 25.0609
RightHand  0.310712 -9.94226 -9.30264
LeftUpLeg  -29.684 24.4167 -3.81456
LeftLeg  13.8193 4.92882 -0.687163
LeftFoot  15.8264 -3.03839 12.1483
LeftToes  1.06247e-005 4.65855e-005 -8.18501e-006
173
root  32.4774 37.2411 -32.7301 -13.6065 83.2271 -11.9516
RightUpLeg  -24.2077 -11.5533 0.155212
RightLeg  67.9582 -1.69406 -5.34727
RightFoot  3.29433 -0.0984932 0.840153
RightToes  0.000482159 0.542163 -0.142577
Spine  35.6411 -0.475206 4.05934
Spine1  12.5589 1.15741 -0.978381
HEad  -2.42695 -2.23849 -2.19573
LeftShoulder1  9.03418 -15.094 -42.1837
LeftArm  -11.1413 -13.1942 -17.398
LeftForeArm  -2.34176 -52.8369 -15.1072
LeftHand  -0.25398 0.0180481 5.50724
RightShoulder  5.65541 11.4277 31.9271
RightArm  -5.58951 15.138 27.0974
RightForeArm  -31.137 58.5936 21.1548
RightHand  0.182175 -8.61691 -8.3354
LeftUpLeg  -33.392 28.9234 -8.78406
LeftLeg  17.4127 0.55734 0.300221
LeftFoot  13.2252 -2.81976 12.5118
LeftToes  1.06247e-005 4.65855e-005 -8.18501e-006
174
root  33.03 37.3538 -32.9489 -13.4724 83.1172 -13.0894
RightUpLeg  -30.7201 -12.3912 0.681141
RightLeg  69.566 -1.74767 -6.00948
RightFoot  4.19685 0.204493 -1.32408
RightToes  0.000482159 0.542163 -0.142577
Spine  39.9488 -1.09917 5.17487
Spine1  12.3733 1.5317 -2.46678
HEad  -6.03718 -3.5962 -2.13698
LeftShoulder1  9.32545 -15.9341 -41.6188
LeftArm  -11.6575 -19.5223 -16.7261
LeftForeArm  -4.81558 -47.7893 -12.713
LeftHand  -0.25398 0.0180481 5.50724
RightShoulder  5.50608 11.6212 30.4401
RightArm  -6.51754 20.4142 27.3543
RightForeArm  -33.2779 53.5009 17.4906
RightHand  0.0771773 -7.73312 -6.2338
LeftUpLeg  -34.5706 29.5608 -9.80903
LeftLeg  18.4718 0.0334606 0.3839
LeftFoot  11.5668 -2.59504 12.4063
LeftToes  1.06247e-005 4.65855e-005 -8.18501e-006
